<?xml version="1.0" standalone="no"?>
<!DOCTYPE svg PUBLIC "-//W3C//DTD SVG 20010904//EN"
 "http://www.w3.org/TR/2001/REC-SVG-20010904/DTD/svg10.dtd">
<svg version="1.0" xmlns="http://www.w3.org/2000/svg"
 width="43.000000pt" height="38.000000pt" viewBox="0 0 43.000000 38.000000"
 preserveAspectRatio="xMidYMid meet">
<metadata>
Created by potrace 1.10, written by Peter Selinger 2001-2011
</metadata>
<g transform="translate(0.000000,38.000000) scale(0.100000,-0.100000)"
fill="#000000" stroke="none">
<path d="M84 272 c-22 -14 -34 -52 -34 -106 0 -53 1 -56 25 -56 24 0 25 3 25
60 0 47 3 60 15 60 8 0 15 -4 15 -10 0 -5 -4 -10 -10 -10 -5 0 -10 -9 -10 -20
0 -28 36 -26 55 4 33 50 -31 112 -81 78z"/>
<path d="M206 258 c-11 -15 -16 -45 -16 -85 0 -61 1 -63 25 -63 24 0 25 3 25
60 0 33 4 60 10 60 6 0 10 -27 10 -60 0 -57 1 -60 24 -60 23 0 24 2 19 60 -4
41 -2 60 6 60 7 0 11 -22 11 -60 0 -57 1 -60 25 -60 24 0 25 2 25 66 0 36 -5
74 -10 85 -12 21 -50 25 -68 7 -9 -9 -15 -9 -24 0 -19 19 -45 14 -62 -10z"/>
</g>
</svg>
